<svg xmlns="http://www.w3.org/2000/svg" version="1.1" xmlns:xlink="http://www.w3.org/1999/xlink" xmlns:svgjs="http://svgjs.dev/svgjs" width="1000" height="1000" viewBox="0 0 1000 1000"><rect width="1000" height="1000" fill="#000000"></rect><g transform="matrix(0.7,0,0,0.7,149.57575757575756,282.1265587044535)"><svg viewBox="0 0 396 247" data-background-color="#ffffff" preserveAspectRatio="xMidYMid meet" height="623" width="1000" xmlns="http://www.w3.org/2000/svg" xmlns:xlink="http://www.w3.org/1999/xlink"><g id="tight-bounds" transform="matrix(1,0,0,1,0.2400000000000091,-0.09999999999999432)"><svg viewBox="0 0 395.52 247.2" height="247.2" width="395.52"><g><svg></svg></g><g><svg viewBox="0 0 395.52 247.2" height="247.2" width="395.52"><g transform="matrix(1,0,0,1,99.28042314049587,47.215199999999996)"><svg viewBox="0 0 196.95915371900824 152.7696" height="152.7696" width="196.95915371900824"><g><svg viewBox="0 0 196.95915371900824 152.7696" height="152.7696" width="196.95915371900824"><g><svg viewBox="0 0 196.95915371900824 152.7696" height="152.7696" width="196.95915371900824"><g><svg viewBox="0 0 196.95915371900824 152.7696" height="152.7696" width="196.95915371900824"><g id="textblocktransform"><svg viewBox="0 0 196.95915371900824 152.7696" height="152.7696" width="196.95915371900824" id="textblock"><g><svg viewBox="0 0 196.95915371900824 152.7696" height="152.7696" width="196.95915371900824"><g transform="matrix(1,0,0,1,0,0)"><svg width="196.95915371900824" viewBox="2.1500000953674316 -35.099998474121094 54.599998474121094 42.349998474121094" height="152.7696" data-palette-color="#1c4b82"><path d="M20.2-31.2L2.15-31.2 2.15-34.6 24.65-34.6 24.65-30.1 6.55-4.4 6.55-3.4 24.65-3.4 24.65 0.05 2.15 0.05 2.15-4.4 20.2-30.1 20.2-31.2ZM43.05 0.5L43.05 0.5Q35.3 0.5 32.35-3.75 29.4-8 29.4-17.13 29.4-26.25 32.4-30.68 35.4-35.1 43.05-35.1 50.7-35.1 53.72-30.7 56.75-26.3 56.75-17.15L56.75-17.15Q56.75-10.8 55.45-6.98 54.15-3.15 51-1.3L51-1.3 55.25 5.55 51.65 7.25 47.25 0.05Q45.6 0.5 43.05 0.5ZM33.35-17.15Q33.35-9.55 35.35-6.23 37.35-2.9 43.07-2.9 48.8-2.9 50.77-6.13 52.75-9.35 52.75-17.03 52.75-24.7 50.7-28.2 48.65-31.7 43.02-31.7 37.4-31.7 35.37-28.23 33.35-24.75 33.35-17.15Z" opacity="1" transform="matrix(1,0,0,1,0,0)" fill="#ffffff" class="undefined-text-0" data-fill-palette-color="primary" id="text-0"></path></svg></g></svg></g></svg></g></svg></g></svg></g></svg></g></svg></g><path d="M113.938 41.215L113.938 0 361.138 0 361.138 247.2 113.938 247.2 113.938 205.985 127.715 205.985 127.715 233.423 347.361 233.423 347.361 13.777 127.715 13.777 127.715 41.215Z" fill="#ffffff" stroke="transparent" data-fill-palette-color="primary"></path></svg></g><defs></defs></svg><rect width="395.52" height="247.2" fill="none" stroke="none" visibility="hidden"></rect></g></svg></g></svg>